<svg width="16" height="15" viewBox="0 0 16 15" fill="none" xmlns="http://www.w3.org/2000/svg">
<path d="M16 7.71854C15.9267 7.99826 15.7434 8.19865 15.552 8.39487C13.7073 10.2819 11.8666 12.169 10.026 14.056C9.68389 14.4025 9.2563 14.5069 8.91423 14.2439C8.60066 14.0059 8.31967 13.7095 8.07941 13.3922C7.85543 13.0958 7.91652 12.6741 8.15678 12.3819C8.20158 12.3234 8.25452 12.2733 8.30746 12.2191C9.36218 11.1419 10.4169 10.0648 11.4716 8.98353C11.5083 8.94596 11.5449 8.90003 11.606 8.83741C11.5123 8.83741 11.4553 8.83741 11.3942 8.83741C7.93688 8.83741 4.47951 8.83741 1.02214 8.83741C0.350216 8.84158 0 8.48254 0 7.80621C0 7.62669 0 7.443 0 7.26348C0 6.63307 0.342072 6.2782 0.956987 6.2782C2.72843 6.2782 4.49987 6.2782 6.26724 6.2782C7.96539 6.2782 9.66353 6.2782 11.3617 6.2782C11.4187 6.2782 11.4757 6.2782 11.5694 6.2782C11.5083 6.21558 11.4757 6.17383 11.435 6.13625C10.3762 5.04661 9.31738 3.96114 8.25859 2.87149C7.92466 2.52915 7.82693 2.07409 8.07941 1.72757C8.3156 1.4061 8.60473 1.11804 8.91423 0.871718C9.20743 0.637924 9.6228 0.704722 9.91194 0.955215C9.96895 1.00531 10.0178 1.05541 10.0708 1.10969C11.8951 2.98004 13.7155 4.84621 15.5398 6.71239C15.7353 6.91278 15.9226 7.11735 16 7.40125C16 7.50562 16 7.60999 16 7.71854Z" fill="black"/>
</svg>
